<mxfile host="app.diagrams.net" modified="2020-12-19T12:30:05.391Z" agent="5.0 (Windows NT 10.0; Win64; x64) AppleWebKit/537.36 (KHTML, like Gecko) Chrome/87.0.4280.88 Safari/537.36" etag="IsmVWpNjpZRxS6kfcoC9" version="13.11.0" type="github">
  <diagram id="WUpxlR8k2EQ9UZFX5srS" name="Page-1">
    <mxGraphModel dx="1673" dy="896" grid="1" gridSize="10" guides="1" tooltips="1" connect="1" arrows="1" fold="1" page="1" pageScale="1" pageWidth="850" pageHeight="1100" math="0" shadow="0">
      <root>
        <mxCell id="0" />
        <mxCell id="1" parent="0" />
        <mxCell id="hsKuTv7uM1HQG2t65gZN-1" value="I don&#39;t know enough about technologies used in the project" style="rounded=0;whiteSpace=wrap;html=1;strokeColor=#FF6666;" vertex="1" parent="1">
          <mxGeometry x="90" y="180" width="210" height="70" as="geometry" />
        </mxCell>
        <mxCell id="hsKuTv7uM1HQG2t65gZN-2" value="the actual sphere isn&#39;t particularly interesting to me" style="rounded=0;whiteSpace=wrap;html=1;strokeColor=#FF6666;" vertex="1" parent="1">
          <mxGeometry x="90" y="270" width="210" height="70" as="geometry" />
        </mxCell>
        <mxCell id="hsKuTv7uM1HQG2t65gZN-3" value="I&#39;m loosing interest fast while working on the difficult tasks" style="rounded=0;whiteSpace=wrap;html=1;strokeColor=#FF6666;" vertex="1" parent="1">
          <mxGeometry x="90" y="360" width="210" height="70" as="geometry" />
        </mxCell>
        <mxCell id="hsKuTv7uM1HQG2t65gZN-4" value="I&#39;m not focused on solving tasks during the day" style="rounded=0;whiteSpace=wrap;html=1;strokeColor=#FF6666;" vertex="1" parent="1">
          <mxGeometry x="90" y="450" width="210" height="70" as="geometry" />
        </mxCell>
        <mxCell id="hsKuTv7uM1HQG2t65gZN-5" value="The project is too big to understand easily" style="rounded=0;whiteSpace=wrap;html=1;strokeColor=#FF6666;" vertex="1" parent="1">
          <mxGeometry x="90" y="540" width="210" height="70" as="geometry" />
        </mxCell>
        <mxCell id="hsKuTv7uM1HQG2t65gZN-6" value="code is badly written" style="rounded=0;whiteSpace=wrap;html=1;strokeColor=#FF6666;" vertex="1" parent="1">
          <mxGeometry x="90" y="630" width="210" height="70" as="geometry" />
        </mxCell>
        <mxCell id="hsKuTv7uM1HQG2t65gZN-7" value="the idea of the project isn&#39;t interesting for me. " style="rounded=0;whiteSpace=wrap;html=1;strokeColor=#FF6666;" vertex="1" parent="1">
          <mxGeometry x="320" y="180" width="210" height="70" as="geometry" />
        </mxCell>
        <mxCell id="hsKuTv7uM1HQG2t65gZN-8" value=" I&#39;m not sure about working here too much " style="rounded=0;whiteSpace=wrap;html=1;strokeColor=#FF6666;" vertex="1" parent="1">
          <mxGeometry x="320" y="270" width="210" height="70" as="geometry" />
        </mxCell>
        <mxCell id="hsKuTv7uM1HQG2t65gZN-9" value="I&#39;m not sure if they will pay me enough in spring" style="rounded=0;whiteSpace=wrap;html=1;strokeColor=#FF6666;" vertex="1" parent="1">
          <mxGeometry x="320" y="360" width="210" height="70" as="geometry" />
        </mxCell>
        <mxCell id="hsKuTv7uM1HQG2t65gZN-10" value="I&#39;m not sure I&#39;m getting the right experience" style="rounded=0;whiteSpace=wrap;html=1;strokeColor=#FF6666;" vertex="1" parent="1">
          <mxGeometry x="320" y="450" width="210" height="70" as="geometry" />
        </mxCell>
        <mxCell id="hsKuTv7uM1HQG2t65gZN-11" value="What I&#39;m doing isn&#39;t significant from my view" style="rounded=0;whiteSpace=wrap;html=1;strokeColor=#FF6666;" vertex="1" parent="1">
          <mxGeometry x="320" y="540" width="210" height="70" as="geometry" />
        </mxCell>
        <mxCell id="hsKuTv7uM1HQG2t65gZN-12" value="I&#39;m not sure I can use knowledge about this sphere in the future" style="rounded=0;whiteSpace=wrap;html=1;strokeColor=#FF6666;" vertex="1" parent="1">
          <mxGeometry x="320" y="630" width="210" height="70" as="geometry" />
        </mxCell>
        <mxCell id="hsKuTv7uM1HQG2t65gZN-13" value="I don&#39;t have plans for my project where experience from this project will be useful for my future projects " style="rounded=0;whiteSpace=wrap;html=1;strokeColor=#FF6666;" vertex="1" parent="1">
          <mxGeometry x="560" y="180" width="210" height="70" as="geometry" />
        </mxCell>
        <mxCell id="hsKuTv7uM1HQG2t65gZN-14" value=" I&#39;m not sure that working on the project is a worthy investment of time " style="rounded=0;whiteSpace=wrap;html=1;strokeColor=#FF6666;" vertex="1" parent="1">
          <mxGeometry x="560" y="270" width="210" height="70" as="geometry" />
        </mxCell>
        <mxCell id="hsKuTv7uM1HQG2t65gZN-15" value="I think that I can learn more in another project " style="rounded=0;whiteSpace=wrap;html=1;strokeColor=#FF6666;" vertex="1" parent="1">
          <mxGeometry x="560" y="360" width="210" height="70" as="geometry" />
        </mxCell>
        <mxCell id="hsKuTv7uM1HQG2t65gZN-16" value="I think I can earn more in another project" style="rounded=0;whiteSpace=wrap;html=1;strokeColor=#FF6666;" vertex="1" parent="1">
          <mxGeometry x="560" y="450" width="210" height="70" as="geometry" />
        </mxCell>
        <mxCell id="hsKuTv7uM1HQG2t65gZN-17" value="The topic of another project can be more interesting to me." style="rounded=0;whiteSpace=wrap;html=1;strokeColor=#FF6666;" vertex="1" parent="1">
          <mxGeometry x="560" y="540" width="210" height="70" as="geometry" />
        </mxCell>
        <mxCell id="hsKuTv7uM1HQG2t65gZN-18" value="technologies in another project can be more advanced" style="rounded=0;whiteSpace=wrap;html=1;strokeColor=#FF6666;" vertex="1" parent="1">
          <mxGeometry x="560" y="630" width="210" height="70" as="geometry" />
        </mxCell>
        <mxCell id="hsKuTv7uM1HQG2t65gZN-19" value="I don&#39;t have confidence in solving tasks in the project as well as solving bugs  " style="rounded=0;whiteSpace=wrap;html=1;strokeColor=#FF6666;" vertex="1" parent="1">
          <mxGeometry x="800" y="180" width="210" height="70" as="geometry" />
        </mxCell>
        <mxCell id="hsKuTv7uM1HQG2t65gZN-20" value=" I don&#39;t have the skills to do some tasks " style="rounded=0;whiteSpace=wrap;html=1;strokeColor=#FF6666;" vertex="1" parent="1">
          <mxGeometry x="800" y="270" width="210" height="70" as="geometry" />
        </mxCell>
        <mxCell id="hsKuTv7uM1HQG2t65gZN-21" value="I don&#39;t write any code here " style="rounded=0;whiteSpace=wrap;html=1;strokeColor=#FF6666;" vertex="1" parent="1">
          <mxGeometry x="800" y="360" width="210" height="70" as="geometry" />
        </mxCell>
        <mxCell id="hsKuTv7uM1HQG2t65gZN-22" value="I don&#39;t have almost any help from the team to grow" style="rounded=0;whiteSpace=wrap;html=1;strokeColor=#FF6666;" vertex="1" parent="1">
          <mxGeometry x="800" y="450" width="210" height="70" as="geometry" />
        </mxCell>
      </root>
    </mxGraphModel>
  </diagram>
</mxfile>
